# xmcd
#
# Track frame offsets:
#	150
#	19131
#	37120
#	63417
#	88567
#	108683
#	127534
#	145507
#	160205
#	177348
#	195488
#	220837
#	235528
#	251003
#	273403
#	295591
#	320976
#
# Disc length: 4686 seconds
#
# Revision: 0
# Processed by: cddbd v1.5.2PL0 Copyright (c) Steve Scherf et al.
# Submitted via: dBpowerAMP V4.0
#
DISCID=ef124c11
DTITLE=Various Artist - There Must Be A Hole In Your Memory
DYEAR=2014
DGENRE=Rock
TTITLE0=Typwrtr - Hothouse
TTITLE1=Easy - Counting The Days
TTITLE2=Spasmodique - Silent Air
TTITLE3=1000 Mexicans - Night Cascade
TTITLE4=Hearts Fail - Monument
TTITLE5=Elliot Wheeler and Friends - Winter
TTITLE6=Roy Moller - I Can't Escape Myself
TTITLE7=Robert Scott - Party Of The Mind
TTITLE8=Dalmasy - Iron Years
TTITLE9=Changing Gears - Cinematic
TTITLE10=The Social Icons - Total Recall
TTITLE11=Last Burning Embers - Heyday
TTITLE12=The Last Hour - Winning
TTITLE13=Great Dynamo - Silent Air
TTITLE14=Black Wings - Judgement
TTITLE15=Shakespeare and The Bible - Dead Guitars
TTITLE16=Temporary Thing - Missiles
EXTD=
EXTT0=
EXTT1=
EXTT2=
EXTT3=
EXTT4=
EXTT5=
EXTT6=
EXTT7=
EXTT8=
EXTT9=
EXTT10=
EXTT11=
EXTT12=
EXTT13=
EXTT14=
EXTT15=
EXTT16=
PLAYORDER=
